HIERARCHY
ROOT Root
{
  OFFSET 0.0 0.0 0.0
  CHANNELS 6 Xposition Yposition Zposition Zrotation Yrotation Xrotation
  JOINT Hips
  {
    OFFSET 0.0 100.0 0.0
    CHANNELS 6 Xposition Yposition Zposition Zrotation Yrotation Xrotation
    JOINT Spine1
    {
      OFFSET 5.003913 -0.037094 -0.013727
      CHANNELS 3 Zrotation Yrotation Xrotation
      JOINT Spine2
      {
        OFFSET 7.125363 -1e-06 0.0
        CHANNELS 3 Zrotation Yrotation Xrotation
        JOINT Chest
        {
          OFFSET 7.594027 1e-06 0.0
          CHANNELS 3 Zrotation Yrotation Xrotation
          JOINT Neck1
          {
            OFFSET 26.313086 -0.460272 -0.181672
            CHANNELS 3 Zrotation Yrotation Xrotation
            JOINT Neck2
            {
              OFFSET 8.045911 0.0 0.0
              CHANNELS 3 Zrotation Yrotation Xrotation
              JOINT Head
              {
                OFFSET 6.432774 0.0 0.0
                CHANNELS 3 Zrotation Yrotation Xrotation
                JOINT HeadEnd
                {
                  OFFSET 16.169773 0.06451 0.00362
                  CHANNELS 3 Zrotation Yrotation Xrotation
                }
                JOINT Jaw
                {
                  OFFSET 0.108741 3.12938 0.002639
                  CHANNELS 3 Zrotation Yrotation Xrotation
                }
                JOINT LeftEye
                {
                  OFFSET 4.45173 8.166359 3.206392
                  CHANNELS 3 Zrotation Yrotation Xrotation
                }
                JOINT RightEye
                {
                  OFFSET 4.436895 8.135758 -3.222429
                  CHANNELS 3 Zrotation Yrotation Xrotation
                }
              }
            }
          }
          JOINT LeftShoulder
          {
            OFFSET 23.218927 5.195579 1.621656
            CHANNELS 3 Zrotation Yrotation Xrotation
            JOINT LeftArm
            {
              OFFSET 15.902118 2e-06 -2e-06
              CHANNELS 3 Zrotation Yrotation Xrotation
              JOINT LeftForeArm
              {
                OFFSET 28.739307 0.0 -1e-06
                CHANNELS 3 Zrotation Yrotation Xrotation
                JOINT LeftHand
                {
                  OFFSET 27.093981 -4e-06 0.0
                  CHANNELS 3 Zrotation Yrotation Xrotation
                  JOINT LeftHandThumb1
                  {
                    OFFSET 2.276781 3.380274 0.83384
                    CHANNELS 3 Zrotation Yrotation Xrotation
                    JOINT LeftHandThumb2
                    {
                      OFFSET 4.705309 -1e-06 -1e-06
                      CHANNELS 3 Zrotation Yrotation Xrotation
                      JOINT LeftHandThumb3
                      {
                        OFFSET 2.798515 0.0 3e-06
                        CHANNELS 3 Zrotation Yrotation Xrotation
                        JOINT LeftHandThumbEnd
                        {
                          OFFSET 3.180793 4e-06 -4e-06
                          CHANNELS 3 Zrotation Yrotation Xrotation
                        }
                      }
                    }
                  }
                  JOINT LeftHandIndex1
                  {
                    OFFSET 3.247786 2.352677 0.137192
                    CHANNELS 3 Zrotation Yrotation Xrotation
                    JOINT LeftHandIndex2
                    {
                      OFFSET 6.367095 1e-06 0.0
                      CHANNELS 3 Zrotation Yrotation Xrotation
                      JOINT LeftHandIndex3
                      {
                        OFFSET 3.662364 0.0 0.0
                        CHANNELS 3 Zrotation Yrotation Xrotation
                        JOINT LeftHandIndex4
                        {
                          OFFSET 2.329242 4e-06 -4e-06
                          CHANNELS 3 Zrotation Yrotation Xrotation
                          JOINT LeftHandIndexEnd
                          {
                            OFFSET 2.767823 1e-06 0.0
                            CHANNELS 3 Zrotation Yrotation Xrotation
                          }
                        }
                      }
                    }
                  }
                  JOINT LeftHandMiddle1
                  {
                    OFFSET 3.163612 0.945023 -0.406112
                    CHANNELS 3 Zrotation Yrotation Xrotation
                    JOINT LeftHandMiddle2
                    {
                      OFFSET 6.276789 3e-06 0.0
                      CHANNELS 3 Zrotation Yrotation Xrotation
                      JOINT LeftHandMiddle3
                      {
                        OFFSET 4.35652 -1e-06 4e-06
                        CHANNELS 3 Zrotation Yrotation Xrotation
                        JOINT LeftHandMiddle4
                        {
                          OFFSET 2.996877 0.0 8e-06
                          CHANNELS 3 Zrotation Yrotation Xrotation
                          JOINT LeftHandMiddleEnd
                          {
                            OFFSET 2.323256 3e-06 -4e-06
                            CHANNELS 3 Zrotation Yrotation Xrotation
                          }
                        }
                      }
                    }
                  }
                  JOINT LeftHandRing1
                  {
                    OFFSET 2.882606 -0.309162 0.107445
                    CHANNELS 3 Zrotation Yrotation Xrotation
                    JOINT LeftHandRing2
                    {
                      OFFSET 6.033198 0.0 4e-06
                      CHANNELS 3 Zrotation Yrotation Xrotation
                      JOINT LeftHandRing3
                      {
                        OFFSET 4.350578 3e-06 0.0
                        CHANNELS 3 Zrotation Yrotation Xrotation
                        JOINT LeftHandRing4
                        {
                          OFFSET 2.651321 2e-06 -7e-06
                          CHANNELS 3 Zrotation Yrotation Xrotation
                          JOINT LeftHandRingEnd
                          {
                            OFFSET 1.937663 1e-06 -4e-06
                            CHANNELS 3 Zrotation Yrotation Xrotation
                          }
                        }
                      }
                    }
                  }
                  JOINT LeftHandPinky1
                  {
                    OFFSET 2.865315 -1.525436 0.575687
                    CHANNELS 3 Zrotation Yrotation Xrotation
                    JOINT LeftHandPinky2
                    {
                      OFFSET 5.54936 1e-06 -8e-06
                      CHANNELS 3 Zrotation Yrotation Xrotation
                      JOINT LeftHandPinky3
                      {
                        OFFSET 3.070974 0.0 -4e-06
                        CHANNELS 3 Zrotation Yrotation Xrotation
                        JOINT LeftHandPinky4
                        {
                          OFFSET 1.549672 1e-06 0.0
                          CHANNELS 3 Zrotation Yrotation Xrotation
                          JOINT LeftHandPinkyEnd
                          {
                            OFFSET 1.952123 0.0 0.0
                            CHANNELS 3 Zrotation Yrotation Xrotation
                          }
                        }
                      }
                    }
                  }
                }
              }
            }
          }
          JOINT RightShoulder
          {
            OFFSET 23.161716 5.296122 -1.380114
            CHANNELS 3 Zrotation Yrotation Xrotation
            JOINT RightArm
            {
              OFFSET -16.027195 -2e-06 1.1e-05
              CHANNELS 3 Zrotation Yrotation Xrotation
              JOINT RightForeArm
              {
                OFFSET -28.736639 4e-06 2e-06
                CHANNELS 3 Zrotation Yrotation Xrotation
                JOINT RightHand
                {
                  OFFSET -27.133619 6e-06 0.0
                  CHANNELS 3 Zrotation Yrotation Xrotation
                  JOINT RightHandThumb1
                  {
                    OFFSET -2.274328 -3.351035 -0.83067
                    CHANNELS 3 Zrotation Yrotation Xrotation
                    JOINT RightHandThumb2
                    {
                      OFFSET -4.703594 -3e-06 2e-06
                      CHANNELS 3 Zrotation Yrotation Xrotation
                      JOINT RightHandThumb3
                      {
                        OFFSET -2.794935 -4e-06 -3e-06
                        CHANNELS 3 Zrotation Yrotation Xrotation
                        JOINT RightHandThumbEnd
                        {
                          OFFSET -3.183852 4e-06 1e-06
                          CHANNELS 3 Zrotation Yrotation Xrotation
                        }
                      }
                    }
                  }
                  JOINT RightHandIndex1
                  {
                    OFFSET -3.253496 -2.33755 -0.127667
                    CHANNELS 3 Zrotation Yrotation Xrotation
                    JOINT RightHandIndex2
                    {
                      OFFSET -6.344434 0.0 0.0
                      CHANNELS 3 Zrotation Yrotation Xrotation
                      JOINT RightHandIndex3
                      {
                        OFFSET -3.654871 0.0 -8e-06
                        CHANNELS 3 Zrotation Yrotation Xrotation
                        JOINT RightHandIndex4
                        {
                          OFFSET -2.327586 -1e-06 0.0
                          CHANNELS 3 Zrotation Yrotation Xrotation
                          JOINT RightHandIndexEnd
                          {
                            OFFSET -2.770001 3e-06 8e-06
                            CHANNELS 3 Zrotation Yrotation Xrotation
                          }
                        }
                      }
                    }
                  }
                  JOINT RightHandMiddle1
                  {
                    OFFSET -3.168223 -0.944764 0.411762
                    CHANNELS 3 Zrotation Yrotation Xrotation
                    JOINT RightHandMiddle2
                    {
                      OFFSET -6.266691 -1e-06 -4e-06
                      CHANNELS 3 Zrotation Yrotation Xrotation
                      JOINT RightHandMiddle3
                      {
                        OFFSET -4.348901 0.0 0.0
                        CHANNELS 3 Zrotation Yrotation Xrotation
                        JOINT RightHandMiddle4
                        {
                          OFFSET -3.00024 2e-06 -4e-06
                          CHANNELS 3 Zrotation Yrotation Xrotation
                          JOINT RightHandMiddleEnd
                          {
                            OFFSET -2.321477 -4e-06 -4e-06
                            CHANNELS 3 Zrotation Yrotation Xrotation
                          }
                        }
                      }
                    }
                  }
                  JOINT RightHandRing1
                  {
                    OFFSET -2.885654 0.293261 -0.119232
                    CHANNELS 3 Zrotation Yrotation Xrotation
                    JOINT RightHandRing2
                    {
                      OFFSET -6.032835 -1e-06 -4e-06
                      CHANNELS 3 Zrotation Yrotation Xrotation
                      JOINT RightHandRing3
                      {
                        OFFSET -4.33881 0.0 -4e-06
                        CHANNELS 3 Zrotation Yrotation Xrotation
                        JOINT RightHandRing4
                        {
                          OFFSET -2.654903 -4e-06 -4e-06
                          CHANNELS 3 Zrotation Yrotation Xrotation
                          JOINT RightHandRingEnd
                          {
                            OFFSET -1.935122 0.0 4e-06
                            CHANNELS 3 Zrotation Yrotation Xrotation
                          }
                        }
                      }
                    }
                  }
                  JOINT RightHandPinky1
                  {
                    OFFSET -2.866241 1.503904 -0.60527
                    CHANNELS 3 Zrotation Yrotation Xrotation
                    JOINT RightHandPinky2
                    {
                      OFFSET -5.553177 -2e-06 0.0
                      CHANNELS 3 Zrotation Yrotation Xrotation
                      JOINT RightHandPinky3
                      {
                        OFFSET -3.062664 -1e-06 -4e-06
                        CHANNELS 3 Zrotation Yrotation Xrotation
                        JOINT RightHandPinky4
                        {
                          OFFSET -1.546529 2e-06 4e-06
                          CHANNELS 3 Zrotation Yrotation Xrotation
                          JOINT RightHandPinkyEnd
                          {
                            OFFSET -1.952341 0.0 -4e-06
                            CHANNELS 3 Zrotation Yrotation Xrotation
                          }
                        }
                      }
                    }
                  }
                }
              }
            }
          }
        }
      }
    }
    JOINT LeftLeg
    {
      OFFSET -8.443107 2.567604 10.043214
      CHANNELS 3 Zrotation Yrotation Xrotation
      JOINT LeftShin
      {
        OFFSET 43.229198 1e-06 -1e-06
        CHANNELS 3 Zrotation Yrotation Xrotation
        JOINT LeftFoot
        {
          OFFSET 42.298611 1e-06 1e-06
          CHANNELS 3 Zrotation Yrotation Xrotation
          JOINT LeftToeBase
          {
            OFFSET 14.165858 1e-06 0.0
            CHANNELS 3 Zrotation Yrotation Xrotation
            JOINT LeftToeEnd
            {
              OFFSET 6.7141 -0.234461 0.0
              CHANNELS 3 Zrotation Yrotation Xrotation
            }
          }
        }
      }
    }
    JOINT RightLeg
    {
      OFFSET -8.303923 2.592729 -10.047278
      CHANNELS 3 Zrotation Yrotation Xrotation
      JOINT RightShin
      {
        OFFSET -43.369682 0.0 1e-06
        CHANNELS 3 Zrotation Yrotation Xrotation
        JOINT RightFoot
        {
          OFFSET -42.260784 4e-06 2e-06
          CHANNELS 3 Zrotation Yrotation Xrotation
          JOINT RightToeBase
          {
            OFFSET -14.222245 -2e-06 -1e-06
            CHANNELS 3 Zrotation Yrotation Xrotation
            JOINT RightToeEnd
            {
              OFFSET -6.660062 0.232574 -2e-06
              CHANNELS 3 Zrotation Yrotation Xrotation
            }
          }
        }
      }
    }
  }
}
MOTION
Frames: 4
Frame Time: 0.03333333333333333
0.0 0.0 0.0 0.0 -0.0 0.0 0.943885 98.531219 -2.017343 90.193832 5.490468 90.956001 -5.117287 0.553615 -0.335987 -12.430679 -0.586413 -0.616575 18.160583 -1.349499 -2.753592 19.40934 -3.38028 2.694694 -2.709205 -0.5899 -1.112415 -28.099945 0.847402 -2.371331 6e-06 -0.0 -0.0 0.069501 -0.019502 -0.128302 0.125512 -0.066015 -0.110029 0.104748 0.026683 -0.14963 179.91214 -71.971176 -170.716904 70.826698 -28.510765 27.073608 103.024483 -0.018672 1.800672 15.65972 11.978045 -32.662159 17.636635 -26.323046 52.411636 -19.466743 -14.395756 29.410658 8e-06 -8.774904 1.1e-05 14.107433 -17.5173 6.663128 -0.609776 -1.795656 -3.889352 -4.80713 -11.046874 -2.937851 -3.1e-05 -20.976183 4.5e-05 -5.020088 -25.033836 -4.031894 6e-06 0.0 -0.0 -10.634587 -5.686995 -3.5656 10.573333 -17.923046 -3.113907 -2.3e-05 -13.821324 3.3e-05 -0.501875 -31.18189 -4.027004 -10.951421 -58.18927 6.669148 -13.982785 -7.15023 -2.875045 13.772822 -8.401523 -3.21827 0.347641 -34.211884 0.771762 -0.963105 -17.733589 2.621091 0.0 -0.0 -0.0 -17.346523 -20.095299 -4.201775 21.757713 -1.638368 3.866434 -8e-06 -6.338879 2e-05 -1.697655 -22.59201 -6.194043 -1e-06 -5e-06 -3e-06 -11.999552 -66.840172 -158.328308 59.972885 -30.8377 41.227295 111.630096 2.978348 0.52897 24.980091 18.748524 -16.364616 22.182264 -20.376156 49.933727 -16.701912 -16.74371 28.476791 1.1e-05 -12.690745 4e-06 15.267887 -17.599546 2.890104 -0.105922 -1.513859 -4.275911 -5.039087 -5.612911 -2.953577 -7e-06 -11.020635 1.3e-05 -6.111393 -15.895542 -3.840518 -0.0 -4e-06 -2e-06 -10.283442 -5.680323 -4.341865 11.028386 -11.302478 -2.372643 -1.384298 -14.238721 -6.320182 -0.625474 -26.924572 -3.827636 -4.328985 -49.950241 -3.234636 -13.708617 -7.36352 -3.720959 18.141302 -14.052829 -3.24269 -2.4e-05 -18.787479 2.7e-05 -0.429735 -8.456162 2.555561 -1e-06 -2e-06 -2e-06 -15.923668 -20.094599 -5.473602 30.419474 -7.190853 1.735946 -1.3e-05 -8.163016 1.3e-05 -1.861969 -22.861807 -6.168005 1e-06 -2e-06 -1e-06 -171.088379 -6.862948 -13.547235 13.148789 -0.054667 0.303848 -83.176346 -4.966878 -13.924529 -4.171232 1.61759 2.185057 -1.0 1e-06 -1e-06 6.020328 -9.830767 -12.381739 14.072981 -0.003267 0.062229 -80.869896 -2.638797 -13.063488 -3.298023 0.342328 1.606692 -1.000002 1e-06 0.0 
0.0 0.0 0.0 0.0 -0.0 0.0 0.876246 98.547348 -2.072215 90.17215 5.423119 91.020622 -5.070187 0.553621 -0.366384 -12.428291 -0.589164 -0.632292 18.128592 -1.369145 -2.732947 19.363089 -3.402544 2.690855 -2.70925 -0.576405 -1.167463 -28.035526 0.81927 -2.351254 7e-06 0.0 -0.0 0.063018 -0.021215 -0.139231 0.123803 -0.068228 -0.12379 0.101204 0.025684 -0.158672 -179.986664 -72.006447 -170.796661 70.894119 -28.39854 26.889027 103.07058 -0.123478 1.787933 15.54832 11.901681 -32.662872 17.636824 -26.322931 52.411629 -19.46681 -14.395727 29.410669 1.2e-05 -8.774943 -1.4e-05 14.087141 -17.564104 6.641614 -0.609786 -1.795666 -3.889354 -4.807157 -11.046897 -2.937881 -1.2e-05 -20.976227 -1e-06 -5.020061 -25.033907 -4.031992 6e-06 1e-06 0.0 -10.634635 -5.687016 -3.565617 10.573374 -17.92308 -3.113922 -7e-06 -13.821347 5e-06 -0.501802 -31.181959 -4.027106 -10.94768 -58.154991 6.642303 -13.982848 -7.150255 -2.875067 13.772871 -8.401547 -3.218261 0.347707 -34.211952 0.77168 -0.963061 -17.733627 2.62107 -0.0 -0.0 0.0 -17.346603 -20.095364 -4.201818 21.757803 -1.638379 3.866493 -4e-06 -6.338887 5e-06 -1.697636 -22.592064 -6.19413 -0.0 -3e-06 -3e-06 -12.126908 -66.889969 -158.18428 60.074924 -30.807323 41.149521 111.72271 3.100893 0.556901 24.924274 18.857885 -16.381186 22.182314 -20.37606 49.933681 -16.701929 -16.743652 28.476765 -1e-06 -12.690729 -9e-06 15.266502 -17.616608 2.886961 -0.10592 -1.513862 -4.275908 -5.039087 -5.612908 -2.953585 5e-06 -11.020633 -1e-06 -6.111369 -15.895542 -3.840544 -1e-06 -1e-06 -2e-06 -10.283438 -5.680321 -4.341871 11.028385 -11.30248 -2.372642 -1.384287 -14.238713 -6.320198 -0.625432 -26.924549 -3.827659 -4.328108 -49.913666 -3.221076 -13.708617 -7.36352 -3.720971 18.141298 -14.052833 -3.242684 4e-06 -18.78746 5e-06 -0.429718 -8.456158 2.55555 1e-06 -1e-06 1e-06 -15.923653 -20.094597 -5.473632 30.41946 -7.190882 1.73597 1e-06 -8.163003 7e-06 -1.861917 -22.861763 -6.168024 0.0 -2e-06 -1e-06 -171.207001 -6.942185 -13.595674 13.138564 -0.055108 0.323972 -83.113747 -4.881106 -13.929586 -4.152909 1.588105 2.179924 -0.999999 -1e-06 0.0 5.922923 -9.755628 -12.372446 14.071809 -0.006924 0.055045 -80.819679 -2.786214 -13.032824 -3.266259 0.343981 1.604733 -1.000005 1e-06 0.0 
0.0 0.0 0.0 0.0 -0.0 0.0 0.804701 98.572746 -2.130332 90.143242 5.34999 91.07486 -5.034755 0.562927 -0.38188 -12.418362 -0.587699 -0.63166 18.092466 -1.402809 -2.689461 19.336115 -3.418701 2.678916 -2.713104 -0.559686 -1.229504 -27.977161 0.811884 -2.32648 5e-06 -0.0 -0.0 0.056958 -0.020285 -0.145178 0.111904 -0.068244 -0.134547 0.090543 0.027396 -0.160557 -179.969711 -72.008507 -170.814026 70.952774 -28.270844 26.729895 103.116364 -0.220222 1.756882 15.465683 11.878885 -32.711075 17.636831 -26.323231 52.41206 -19.466839 -14.39585 29.410852 2.5e-05 -8.774992 -4e-06 14.094963 -17.602705 6.607484 -0.609789 -1.795664 -3.889376 -4.807188 -11.046935 -2.937874 -5.3e-05 -20.976307 4.5e-05 -5.020155 -25.034018 -4.031967 5e-06 2e-06 -1e-06 -10.63468 -5.687035 -3.565627 10.573401 -17.923126 -3.113913 -3.9e-05 -13.821401 3.3e-05 -0.501902 -31.182112 -4.027074 -10.970586 -58.12883 6.620039 -13.982909 -7.150281 -2.875071 13.77293 -8.401555 -3.218276 0.347613 -34.212112 0.771772 -0.963122 -17.733711 2.621105 0.0 0.0 2e-06 -17.346697 -20.095428 -4.201812 21.757906 -1.638364 3.866499 -1.4e-05 -6.338914 2e-05 -1.697706 -22.592167 -6.194114 0.0 -7e-06 -3e-06 -12.164121 -66.931747 -158.131332 60.17696 -30.745398 41.076263 111.848419 3.227905 0.541718 24.896542 18.971565 -16.354891 22.182402 -20.376379 49.934006 -16.701956 -16.743793 28.476946 2e-05 -12.690815 2e-06 15.299007 -17.655104 2.893638 -0.105929 -1.513864 -4.275929 -5.039115 -5.612944 -2.953589 -1.6e-05 -11.020716 3.3e-05 -6.111454 -15.895684 -3.840523 2e-06 -2e-06 -0.0 -10.283491 -5.680346 -4.341886 11.028425 -11.302537 -2.372633 -1.384321 -14.238813 -6.320203 -0.62554 -26.924782 -3.827623 -4.346681 -49.931469 -3.194255 -13.708684 -7.363555 -3.720977 18.141375 -14.052906 -3.242676 -5.3e-05 -18.787626 6.4e-05 -0.429755 -8.456244 2.555594 -0.0 0.0 0.0 -15.923753 -20.094702 -5.473612 30.419611 -7.190886 1.735971 -2.2e-05 -8.163082 2.5e-05 -1.862012 -22.862026 -6.168019 1e-06 -2e-06 -3e-06 -171.286682 -7.019475 -13.654769 13.02188 -0.056456 0.341482 -82.99131 -4.825837 -13.930794 -4.15861 1.560838 2.178374 -1.000004 2e-06 0.0 5.858349 -9.656086 -12.359643 13.969878 -0.013545 0.042614 -80.725883 -2.902241 -12.994181 -3.21558 0.344734 1.605997 -1.000005 -1e-06 0.0 
0.0 0.0 0.0 0.0 -0.0 0.0 0.739847 98.596146 -2.184924 90.11319 5.286057 91.121811 -5.018845 0.57499 -0.377848 -12.402601 -0.585911 -0.606776 18.06982 -1.44238 -2.654373 19.329483 -3.436835 2.676667 -2.715586 -0.546681 -1.281294 -27.909039 0.80455 -2.318484 6e-06 -0.0 0.0 0.053934 -0.019333 -0.150901 0.096607 -0.068083 -0.144156 0.078294 0.028786 -0.162773 179.993042 -71.970673 -170.811386 70.955429 -28.189753 26.642981 103.130356 -0.279779 1.707486 15.42028 11.809849 -32.748089 17.636765 -26.3232 52.412029 -19.466827 -14.395844 29.410849 2.2e-05 -8.774979 4e-06 14.122299 -17.626835 6.582304 -0.609785 -1.795661 -3.889374 -4.807181 -11.046925 -2.937875 -5.3e-05 -20.976294 3.8e-05 -5.020145 -25.033998 -4.031969 5e-06 1e-06 -1e-06 -10.634662 -5.687029 -3.565625 10.57339 -17.923117 -3.113918 -3.7e-05 -13.821392 2.8e-05 -0.501894 -31.182085 -4.027073 -11.006115 -58.097816 6.621105 -13.982886 -7.150271 -2.875068 13.772909 -8.401545 -3.218281 0.347608 -34.21207 0.771767 -0.963126 -17.73369 2.621102 1e-06 -0.0 -1e-06 -17.346664 -20.0954 -4.201809 21.75787 -1.63836 3.866481 -1.6e-05 -6.338906 1.8e-05 -1.697697 -22.592138 -6.194116 0.0 -5e-06 -2e-06 -12.135903 -66.924904 -158.161774 60.213795 -30.65711 41.015968 111.965172 3.292766 0.478725 24.862471 19.016293 -16.312756 22.182369 -20.376266 49.933815 -16.701855 -16.743755 28.476782 2.4e-05 -12.690773 -6e-06 15.328074 -17.70545 2.909564 -0.10592 -1.513853 -4.275914 -5.039105 -5.612909 -2.953574 -1.9e-05 -11.020636 3.5e-05 -6.111439 -15.895534 -3.840497 0.0 -3e-06 0.0 -10.283474 -5.680327 -4.341869 11.028393 -11.302472 -2.372616 -1.384326 -14.238711 -6.320166 -0.625546 -26.924534 -3.827582 -4.369741 -49.968769 -3.170643 -13.708666 -7.363532 -3.720962 18.141321 -14.052816 -3.242653 -5.6e-05 -18.787481 6.6e-05 -0.429752 -8.456167 2.555578 2e-06 -3e-06 0.0 -15.923727 -20.094622 -5.473592 30.419535 -7.190841 1.735987 -2.2e-05 -8.163023 3.2e-05 -1.862033 -22.861813 -6.167957 0.0 -4e-06 -1e-06 -171.356079 -7.097799 -13.705868 12.915579 -0.055914 0.348473 -82.86953 -4.801128 -13.940578 -4.190047 1.546731 2.179283 -1.000003 -1e-06 0.0 5.806101 -9.557349 -12.364079 13.86571 -0.020916 0.031994 -80.649727 -2.945249 -12.966734 -3.193238 0.338142 1.60731 -1.000004 1e-06 -0.0 
